<svg width="25" height="25" viewBox="0 0 25 25" fill="none" xmlns="http://www.w3.org/2000/svg">
<path d="M15.1313 4.54125C15.4904 4.54125 15.8414 4.40808 16.14 4.15858C16.4386 3.90908 16.6714 3.55446 16.8088 3.13956C16.9462 2.72465 16.9822 2.26811 16.9121 1.82765C16.8421 1.38719 16.6691 0.982604 16.4152 0.665052C16.1612 0.347499 15.8377 0.131243 15.4855 0.0436304C15.1333 -0.0439821 14.7682 0.00098383 14.4364 0.172842C14.1046 0.3447 13.821 0.635732 13.6215 1.00913C13.422 1.38254 13.3155 1.82154 13.3155 2.27063C13.3155 2.87283 13.5068 3.45037 13.8473 3.8762C14.1878 4.30202 14.6497 4.54125 15.1313 4.54125ZM14.9799 10.2651C15.1946 10.4801 15.4615 10.5969 15.7365 10.5962H18.1575C18.4785 10.5962 18.7864 10.4368 19.0135 10.1529C19.2405 9.869 19.368 9.48397 19.368 9.0825C19.368 8.68103 19.2405 8.296 19.0135 8.01212C18.7864 7.72823 18.4785 7.56875 18.1575 7.56875H16.1609L13.4668 4.87238C13.2469 4.65163 12.9722 4.534 12.6903 4.53988C12.4083 4.54575 12.1369 4.67476 11.923 4.90455L7.6863 9.4458C7.54439 9.59795 7.43258 9.78914 7.35965 10.0044C7.28671 10.2196 7.25463 10.453 7.26592 10.6864C7.27721 10.9197 7.33155 11.1466 7.4247 11.3493C7.51785 11.552 7.64727 11.7249 7.80281 11.8546L10.8945 14.4336V19.6787C10.8945 20.0802 11.022 20.4652 11.249 20.7491C11.4761 21.033 11.784 21.1925 12.105 21.1925C12.426 21.1925 12.7339 21.033 12.961 20.7491C13.188 20.4652 13.3155 20.0802 13.3155 19.6787V13.6237C13.3155 13.3746 13.2662 13.1293 13.1722 12.9096C13.0782 12.69 12.9422 12.5027 12.7765 12.3645L11.2119 11.0603L13.4154 8.69886L14.9799 10.2651ZM19.368 12.11C18.4103 12.11 17.4742 12.4651 16.6779 13.1305C15.8817 13.7958 15.2611 14.7414 14.8946 15.8478C14.5281 16.9543 14.4322 18.1717 14.619 19.3463C14.8059 20.5208 15.267 21.5997 15.9442 22.4465C16.6214 23.2933 17.4841 23.87 18.4234 24.1037C19.3626 24.3373 20.3362 24.2174 21.221 23.7591C22.1057 23.3008 22.8619 22.5247 23.394 21.529C23.926 20.5332 24.21 19.3626 24.21 18.165C24.21 16.5591 23.6999 15.019 22.7918 13.8835C21.8838 12.7479 20.6522 12.11 19.368 12.11ZM19.368 21.1925C18.8892 21.1925 18.4211 21.0149 18.023 20.6823C17.6248 20.3496 17.3145 19.8768 17.1313 19.3236C16.948 18.7704 16.9001 18.1616 16.9935 17.5744C17.0869 16.9871 17.3175 16.4476 17.6561 16.0242C17.9947 15.6008 18.4261 15.3125 18.8957 15.1957C19.3653 15.0789 19.8521 15.1388 20.2945 15.368C20.7369 15.5971 21.115 15.9851 21.381 16.483C21.647 16.9809 21.789 17.5662 21.789 18.165C21.789 18.9679 21.5339 19.738 21.0799 20.3058C20.6259 20.8735 20.0101 21.1925 19.368 21.1925ZM4.842 12.11C3.88434 12.11 2.94819 12.4651 2.15193 13.1305C1.35567 13.7958 0.735057 14.7414 0.368577 15.8478C0.00209795 16.9543 -0.0937898 18.1717 0.0930398 19.3463C0.279869 20.5208 0.741025 21.5997 1.41819 22.4465C2.09536 23.2933 2.95812 23.87 3.89737 24.1037C4.83663 24.3373 5.81019 24.2174 6.69495 23.7591C7.57971 23.3008 8.33593 22.5247 8.86798 21.529C9.40002 20.5332 9.684 19.3626 9.684 18.165C9.684 16.5591 9.17386 15.019 8.26581 13.8835C7.35776 12.7479 6.12618 12.11 4.842 12.11ZM4.842 21.1925C4.36317 21.1925 3.8951 21.0149 3.49697 20.6823C3.09884 20.3496 2.78853 19.8768 2.60529 19.3236C2.42205 18.7704 2.37411 18.1616 2.46752 17.5744C2.56094 16.9871 2.79151 16.4476 3.1301 16.0242C3.46868 15.6008 3.90006 15.3125 4.36969 15.1957C4.83932 15.0789 5.3261 15.1388 5.76848 15.368C6.21086 15.5971 6.58897 15.9851 6.85499 16.483C7.12101 16.9809 7.263 17.5662 7.263 18.165C7.263 18.9679 7.00793 19.738 6.55391 20.3058C6.09988 20.8735 5.48409 21.1925 4.842 21.1925Z" fill="#F61706"/>
</svg>
