<svg width="25" height="25" viewBox="0 0 25 25" fill="none" xmlns="http://www.w3.org/2000/svg">
<path d="M17.9932 17.3779L19.3994 16.6992C19.9414 17.8174 20.6689 18.8086 21.5527 19.6729C23.2129 17.5977 24.2139 14.9707 24.2139 12.1094C24.2139 9.25293 23.2178 6.63086 21.5674 4.56055C20.6982 5.40527 19.9756 6.37207 19.4385 7.46582L18.0371 6.77734C18.6621 5.50781 19.502 4.38477 20.5176 3.4082C18.3398 1.30371 15.3809 0 12.1094 0C8.84277 0 5.88379 1.29883 3.70605 3.40332C4.7168 4.375 5.55664 5.49805 6.18164 6.7627L4.78027 7.45117C4.24316 6.36231 3.52539 5.39551 2.65625 4.55078C0.996094 6.62598 0 9.24805 0 12.1094C0 14.9707 0.996094 17.5928 2.65625 19.6631C3.54492 18.7988 4.27734 17.8076 4.81934 16.6846L6.22559 17.3633C5.5957 18.667 4.74609 19.8193 3.71094 20.8154C5.88379 22.9199 8.84277 24.2188 12.1094 24.2188C15.3711 24.2188 18.3252 22.9248 20.5029 20.8252C19.4727 19.8291 18.623 18.6816 17.9932 17.3779ZM6.8457 15.8154L5.35645 15.3369C6.08398 13.0713 5.97656 10.7568 5.32715 8.79395L6.81152 8.30566C7.54395 10.5322 7.69043 13.1836 6.8457 15.8154ZM17.4072 8.3252L18.8916 8.81348C18.2471 10.7715 18.1348 13.0859 18.8623 15.3564L17.373 15.835C16.5283 13.1982 16.6748 10.5469 17.4072 8.3252Z" fill="#F61706"/>
</svg>
